<?xml version="1.0" standalone="no"?>
<!DOCTYPE svg PUBLIC "-//W3C//DTD SVG 20010904//EN"
 "http://www.w3.org/TR/2001/REC-SVG-20010904/DTD/svg10.dtd">
<svg version="1.0" xmlns="http://www.w3.org/2000/svg"
 width="700.000000pt" height="700.000000pt" viewBox="0 0 700.000000 700.000000"
 preserveAspectRatio="xMidYMid meet">
<metadata>
Created by potrace 1.14, written by Peter Selinger 2001-2017
</metadata>
<g transform="translate(0.000000,700.000000) scale(0.100000,-0.100000)"
fill="#000000" stroke="none">
<path d="M1918 6534 c-2 -1 -31 -5 -66 -8 -313 -30 -648 -186 -927 -432 -380
-334 -643 -778 -709 -1191 -24 -153 -26 -173 -26 -323 1 -365 80 -683 259
-1040 79 -156 91 -176 186 -320 110 -166 156 -223 344 -419 87 -91 173 -182
191 -201 18 -19 123 -129 234 -244 110 -115 216 -225 235 -245 19 -20 88 -93
155 -162 108 -112 383 -398 570 -593 225 -235 477 -496 579 -602 66 -67 144
-149 175 -183 32 -33 117 -123 191 -199 l134 -140 51 31 c28 17 60 38 71 47
11 9 40 28 65 42 140 80 311 221 538 443 l123 120 -78 73 c-145 136 -248 234
-345 329 -53 52 -101 93 -107 92 -5 -2 -57 -50 -115 -106 -58 -57 -109 -103
-114 -103 -7 0 -126 122 -375 384 -32 33 -145 151 -252 261 -106 110 -218 227
-250 260 -31 33 -141 147 -243 254 -103 107 -207 215 -232 241 -888 925 -832
864 -929 1010 -248 370 -363 747 -328 1075 30 284 147 518 382 763 410 428
861 473 1370 137 131 -86 191 -138 345 -295 178 -181 297 -244 462 -243 170 2
292 70 452 252 146 166 268 263 438 348 182 90 339 128 533 126 152 -1 276
-28 402 -89 289 -139 556 -421 678 -718 61 -150 79 -242 79 -416 1 -85 -3
-181 -7 -213 -11 -82 -53 -220 -88 -293 -16 -34 -29 -66 -29 -70 1 -7 414
-272 525 -337 11 -7 31 -20 44 -29 13 -10 29 -18 35 -18 40 0 194 392 221 560
3 19 7 46 10 60 22 121 32 352 20 470 -10 97 -16 145 -20 164 -3 12 -7 32 -9
46 -28 165 -116 403 -211 570 -34 60 -115 186 -141 220 -321 411 -712 682
-1126 780 -150 35 -225 43 -383 44 -110 0 -236 -8 -287 -18 -7 -2 -31 -6 -53
-10 -382 -73 -752 -267 -1037 -544 l-57 -55 -78 70 c-281 252 -564 420 -858
510 -120 36 -189 52 -315 69 -44 6 -297 13 -302 8z"/>
<path d="M4909 4526 c-245 -52 -416 -223 -473 -473 -24 -108 -24 -109 32 -110
26 0 125 -4 220 -7 161 -6 172 -6 172 11 1 34 38 100 68 122 96 68 377 25 458
-71 42 -51 49 -106 28 -222 -31 -171 -120 -260 -284 -284 -30 -4 -488 -7
-1018 -7 -529 1 -965 -1 -970 -4 -4 -3 -7 -102 -7 -218 l0 -213 440 0 c1276
-1 1553 0 1583 4 18 3 52 8 75 11 70 11 188 54 258 95 155 92 257 224 324 420
13 38 22 70 20 70 -3 0 -1 10 4 23 10 27 24 131 26 202 1 44 -2 71 -19 160 -8
41 -47 133 -76 178 -102 161 -273 263 -525 312 -70 14 -272 14 -336 1z"/>
<path d="M2771 2770 l-2 -220 173 -1 c95 0 281 -2 413 -4 132 -2 447 -6 700
-10 1577 -22 1869 -29 2000 -51 161 -26 232 -95 259 -248 43 -248 -38 -350
-289 -363 -135 -7 -200 31 -228 134 l-12 45 -55 -7 c-30 -4 -72 -9 -93 -10
-21 -2 -77 -8 -125 -15 -48 -6 -102 -12 -119 -13 -18 -1 -35 -7 -37 -12 -2 -6
5 -44 15 -85 60 -241 229 -408 471 -465 86 -20 286 -13 388 13 168 44 273 103
369 208 130 142 181 324 158 564 -37 386 -255 622 -632 685 -16 3 -41 7 -55
10 -104 19 -727 32 -2916 60 l-382 5 -1 -220z"/>
<path d="M4016 2463 c-2 -2 -233 -10 -377 -12 l-46 -1 4 -97 c2 -54 6 -132 8
-173 2 -41 4 -96 4 -122 l1 -46 118 4 c413 16 722 9 853 -20 95 -21 168 -65
196 -119 24 -47 23 -169 -4 -228 -38 -84 -135 -159 -206 -159 -51 0 -131 46
-187 107 l-51 56 -34 -19 c-74 -41 -191 -109 -210 -121 -11 -7 -33 -19 -50
-27 -16 -8 -42 -23 -57 -33 l-27 -19 50 -66 c191 -255 492 -373 739 -289 304
104 493 372 493 696 -1 286 -156 508 -422 605 -91 33 -248 68 -348 76 -67 6
-442 11 -447 7z"/>
</g>
</svg>
